<?xml version="1.0" standalone="no"?>
<!DOCTYPE svg PUBLIC "-//W3C//DTD SVG 20010904//EN"
 "http://www.w3.org/TR/2001/REC-SVG-20010904/DTD/svg10.dtd">
<svg version="1.0" xmlns="http://www.w3.org/2000/svg"
 width="498.000000pt" height="629.000000pt" viewBox="0 0 498.000000 629.000000"
 preserveAspectRatio="xMidYMid meet">

<g transform="translate(0.000000,629.000000) scale(0.100000,-0.100000)"
fill="#000000" stroke="none">
<path d="M3234 4205 c-201 -36 -358 -112 -517 -248 -140 -120 -271 -335 -324
-532 -24 -90 -27 -117 -27 -275 0 -158 3 -185 27 -275 53 -197 183 -410 325
-534 83 -71 220 -155 310 -190 134 -51 222 -66 382 -66 153 0 216 10 335 52
61 22 221 99 235 113 13 13 99 80 103 80 7 0 114 110 110 114 -2 2 10 15 26
29 16 13 27 27 24 31 -3 3 2 8 11 12 9 3 13 10 10 15 -3 5 2 12 10 15 9 3 13
10 10 15 -3 5 2 12 10 15 9 3 13 10 10 15 -3 5 0 9 6 9 6 0 8 5 5 10 -3 6 1
13 9 16 9 3 13 10 10 15 -3 5 0 9 7 9 7 0 10 3 6 6 -3 4 1 13 9 21 8 9 13 22
10 29 -3 8 -1 14 5 14 6 0 7 5 4 10 -3 6 -1 10 5 10 7 0 10 7 6 15 -3 8 -1 15
5 15 6 0 7 5 4 10 -3 6 -2 10 4 10 6 0 8 7 5 15 -4 8 -1 15 6 15 7 0 10 8 7
20 -3 11 -1 20 3 20 4 0 6 8 3 19 -3 10 0 22 5 25 6 3 8 15 5 26 -3 11 -1 20
5 20 6 0 9 13 7 30 -2 16 0 32 6 35 11 8 12 275 1 275 -5 0 -8 14 -7 30 1 17
-2 30 -6 30 -4 0 -5 9 -2 21 3 12 0 24 -7 29 -6 4 -12 24 -13 44 -1 20 -4 36
-9 36 -4 0 -5 7 -2 15 4 8 1 15 -6 15 -6 0 -8 5 -5 10 3 6 1 10 -5 10 -7 0
-10 6 -8 12 3 7 -2 19 -9 27 -8 7 -12 18 -10 25 2 6 -2 17 -10 24 -7 8 -11 18
-8 23 4 5 1 9 -5 9 -6 0 -9 4 -6 9 3 5 -1 12 -10 15 -8 3 -12 10 -9 16 3 5 1
10 -5 10 -6 0 -9 4 -6 9 3 5 -1 12 -10 15 -8 3 -13 10 -10 15 3 5 -1 12 -10
15 -8 3 -13 10 -10 15 3 5 -1 12 -10 15 -8 3 -13 10 -10 15 3 5 -6 16 -20 26
-14 9 -24 19 -21 21 6 7 -111 119 -173 165 -126 93 -299 170 -439 194 -100 18
-260 18 -357 0z m102 -691 c316 -152 585 -288 605 -307 24 -22 25 -71 1 -94
-9 -10 -190 -105 -402 -212 l-385 -193 -42 11 c-23 6 -51 23 -62 38 -20 25
-21 38 -21 397 0 327 2 374 16 395 17 24 66 50 95 51 9 0 97 -39 195 -86z"/>
<path d="M3169 493 c-13 -16 -12 -17 4 -4 16 13 21 21 13 21 -2 0 -10 -8 -17
-17z"/>
</g>
</svg>
